<svg xmlns="http://www.w3.org/2000/svg" viewBox="94.0 210.5 493 493" width="493" height="493" role="img" aria-label="Pegium"><defs><linearGradient id="pg" gradientUnits="userSpaceOnUse" x1="543.2" y1="319.5" x2="73.0" y2="519.6"><stop offset="0" stop-color="#09B0BA"/><stop offset="1" stop-color="#61E6E2"/></linearGradient></defs><path fill="url(#pg)" fill-rule="evenodd" d="M 258 251 L 462 251 L 488 258 L 505 268 L 520 281 L 531 295 L 540 312 L 547 338 L 547 366 L 543 385 L 527 420 L 506 447 L 480 470 L 445 490 L 420 499 L 391 504 L 278 504 L 134 663 L 134 542 L 136 535 L 147 520 L 246 419 L 260 414 L 357 415 L 394 413 L 408 407 L 423 395 L 442 374 L 451 357 L 451 344 L 448 340 L 442 338 L 176 338 L 182 328 L 240 261 L 247 255 L 258 251 Z"/></svg>