<svg xmlns="http://www.w3.org/2000/svg" viewBox="88 205 1470 504" width="1470" height="504" role="img" aria-label="Pegium"><defs><linearGradient id="pg" gradientUnits="userSpaceOnUse" x1="543.2" y1="319.5" x2="73.0" y2="519.6"><stop offset="0" stop-color="#09B0BA"/><stop offset="1" stop-color="#61E6E2"/></linearGradient></defs><path fill="url(#pg)" fill-rule="evenodd" d="M 258 251 L 462 251 L 488 258 L 505 268 L 520 281 L 531 295 L 540 312 L 547 338 L 547 366 L 543 385 L 527 420 L 506 447 L 480 470 L 445 490 L 420 499 L 391 504 L 278 504 L 134 663 L 134 542 L 136 535 L 147 520 L 246 419 L 260 414 L 357 415 L 394 413 L 408 407 L 423 395 L 442 374 L 451 357 L 451 344 L 448 340 L 442 338 L 176 338 L 182 328 L 240 261 L 247 255 L 258 251 Z"/><g transform="translate(-41 0)"><path fill="#232A35" fill-rule="evenodd" d="M 1030 314 L 1050 314 L 1055 318 L 1056 340 L 1052 345 L 1032 346 L 1028 345 L 1025 342 L 1024 320 L 1030 314 Z M 678 374 L 717 375 L 728 377 L 745 384 L 754 391 L 762 401 L 770 421 L 772 435 L 772 466 L 768 471 L 640 471 L 638 473 L 639 490 L 645 507 L 652 515 L 658 519 L 671 523 L 722 524 L 762 521 L 766 524 L 765 545 L 736 548 L 659 547 L 643 542 L 633 536 L 623 526 L 618 518 L 614 508 L 610 486 L 610 437 L 616 411 L 626 395 L 641 383 L 661 376 L 678 374 Z M 880 375 L 973 376 L 975 379 L 974 575 L 970 589 L 963 601 L 949 613 L 929 620 L 910 622 L 874 622 L 829 619 L 822 618 L 819 615 L 819 597 L 822 593 L 866 597 L 919 596 L 934 590 L 941 583 L 945 574 L 947 562 L 946 537 L 928 545 L 910 548 L 875 548 L 856 545 L 840 538 L 826 526 L 819 515 L 814 501 L 811 483 L 811 440 L 814 423 L 821 406 L 833 391 L 845 383 L 863 377 L 880 375 Z M 1354 375 L 1409 376 L 1419 379 L 1429 385 L 1439 380 L 1454 376 L 1504 375 L 1521 378 L 1535 385 L 1543 393 L 1548 402 L 1553 422 L 1553 546 L 1527 547 L 1525 545 L 1525 434 L 1522 417 L 1519 411 L 1513 405 L 1499 400 L 1462 400 L 1453 402 L 1445 408 L 1445 545 L 1443 547 L 1418 547 L 1416 545 L 1416 425 L 1413 413 L 1408 406 L 1394 400 L 1353 400 L 1342 403 L 1337 408 L 1335 413 L 1335 545 L 1333 547 L 1309 547 L 1307 545 L 1308 400 L 1314 388 L 1320 383 L 1335 377 L 1354 375 Z M 1029 376 L 1053 376 L 1055 379 L 1055 544 L 1053 547 L 1028 547 L 1026 544 L 1026 379 L 1029 376 Z M 1105 376 L 1129 376 L 1131 378 L 1131 492 L 1134 507 L 1143 518 L 1152 522 L 1168 524 L 1197 524 L 1214 522 L 1226 516 L 1231 510 L 1235 496 L 1236 482 L 1235 380 L 1237 376 L 1263 377 L 1263 502 L 1258 521 L 1247 536 L 1233 544 L 1214 548 L 1152 548 L 1139 546 L 1128 542 L 1114 531 L 1107 518 L 1103 499 L 1103 378 L 1105 376 Z M 677 400 L 714 401 L 730 408 L 735 413 L 740 422 L 743 437 L 743 446 L 639 447 L 641 428 L 648 413 L 660 404 L 677 400 Z M 880 401 L 944 401 L 946 403 L 946 498 L 941 510 L 928 519 L 914 522 L 873 521 L 863 518 L 855 513 L 845 499 L 841 483 L 840 465 L 841 439 L 845 424 L 851 414 L 858 408 L 869 403 L 880 401 Z"/></g></svg>